<svg id="Layer_1" data-name="Layer 1" xmlns="http://www.w3.org/2000/svg" xmlns:xlink="http://www.w3.org/1999/xlink" viewBox="0 0 365.02 336.44"><defs><style>.cls-1{fill:url(#linear-gradient);}.cls-2{fill:url(#linear-gradient-2);}.cls-3{fill:url(#linear-gradient-3);}.cls-4{fill:url(#linear-gradient-4);}.cls-5{fill:url(#linear-gradient-5);}</style><linearGradient id="linear-gradient" x1="127.14" y1="206.21" x2="301.46" y2="66.75" gradientUnits="userSpaceOnUse"><stop offset="0" stop-color="#3785c6"/><stop offset="0.19" stop-color="#4277bc"/><stop offset="0.56" stop-color="#5e53a3"/></linearGradient><linearGradient id="linear-gradient-2" x1="291.11" y1="62" x2="48.59" y2="289.37" gradientUnits="userSpaceOnUse"><stop offset="0" stop-color="#3785c6"/><stop offset="0.35" stop-color="#4277bc"/><stop offset="1" stop-color="#5e53a3"/></linearGradient><linearGradient id="linear-gradient-3" x1="223.66" y1="-9.95" x2="-18.87" y2="217.42" xlink:href="#linear-gradient-2"/><linearGradient id="linear-gradient-4" x1="287.76" y1="58.43" x2="45.23" y2="285.79" xlink:href="#linear-gradient-2"/><linearGradient id="linear-gradient-5" x1="354.41" y1="129.51" x2="111.88" y2="356.88" xlink:href="#linear-gradient-2"/></defs><title>logo-half</title><rect class="cls-1" x="127.62" y="115.82" width="100" height="100"/><polygon class="cls-2" points="112.62 171.21 76.93 171.21 76.93 265.25 95.15 265.25 95.15 300.4 138.41 265.25 172.01 265.25 172.01 230.82 112.62 230.82 112.62 171.21"/><polygon class="cls-3" points="76.93 156.21 112.62 156.21 112.62 100.82 172.01 100.82 172.01 65.25 76.93 65.25 76.93 156.21"/><polygon class="cls-4" points="187.01 65.25 187.01 100.82 207.2 100.82 207.2 86.46 257.2 86.46 257.2 136.46 242.62 136.46 242.62 156.21 276.93 156.21 276.93 65.25 187.01 65.25"/><polygon class="cls-5" points="242.62 230.82 187.01 230.82 187.01 265.25 276.93 265.25 276.93 171.21 242.62 171.21 242.62 230.82"/></svg>