<?xml version="1.0" encoding="utf-8"?>
<!-- Generator: Adobe Illustrator 23.0.1, SVG Export Plug-In . SVG Version: 6.00 Build 0)  -->
<svg version="1.1" id="Layer_1" xmlns="http://www.w3.org/2000/svg" xmlns:xlink="http://www.w3.org/1999/xlink" x="0px" y="0px"
	 viewBox="0 0 595.28 841.89" style="enable-background:new 0 0 595.28 841.89;" xml:space="preserve">
<style type="text/css">
	.st0{fill:none;stroke:#010101;stroke-width:16;stroke-linecap:round;stroke-linejoin:round;}
	.st1{fill:none;stroke:#010101;stroke-width:5;stroke-linecap:round;stroke-linejoin:round;}
	.st2{fill:#010101;}
</style>
<g>
	<path class="st0" d="M339.76,288.64c0.04,16.94-3.91,33.65-11.55,48.77c-18.47,36.95-56.22,60.3-97.53,60.32
		c-16.94,0.04-33.65-3.91-48.77-11.55l-73.15,24.38l24.38-73.15c-7.64-15.12-11.59-31.83-11.55-48.77
		c0.02-41.31,23.37-79.07,60.32-97.53c15.12-7.64,31.83-11.59,48.77-11.55h6.42c55.39,3.06,99.61,47.28,102.67,102.67V288.64z"/>
	<circle class="st1" cx="159.15" cy="303.15" r="16.15"/>
	<circle class="st1" cx="172.15" cy="252.15" r="16.15"/>
	<circle class="st1" cx="212.15" cy="222.15" r="16.15"/>
	<circle class="st1" cx="262.15" cy="227.15" r="16.15"/>
</g>
<g>
	<g id="XMLID_1_">
		<path id="XMLID_3_" class="st2" d="M243,357.17l57.14-68.1l-48.06-40.33c-2.36-1.98-5.89-1.68-7.87,0.69l-5.19,6.19
			c-1.49,1.78-1.73,4.3-0.59,6.32l1.79,3.2l-3.27-1.23c-2.22-0.84-4.73-0.18-6.26,1.64l-16.54,19.71c-1.72,2.05-1.75,5.02-0.07,7.1
			L227.49,309l-18.61-10.4c-2.34-1.31-5.28-0.77-7.01,1.29l-7.62,9.09c-1.98,2.36-1.68,5.89,0.69,7.87L243,357.17z"/>
		<path id="XMLID_2_" class="st2" d="M251.94,364.68l13.91,11.67c2.36,1.98,5.89,1.68,7.87-0.69l11.07-13.2
			c2.13-2.54,5.26-3.95,8.58-3.88c3.32,0.07,6.38,1.62,8.4,4.25c25.85,33.67,29.46,36.7,30.65,37.7c8.52,7.15,21.27,6.05,28.43-2.49
			c7.15-8.52,6.04-21.28-2.49-28.43c-1.19-1-4.8-4.03-42.45-23.64c-2.95-1.54-5.01-4.28-5.66-7.54c-0.65-3.26,0.2-6.58,2.34-9.12
			l11.07-13.2c0.95-1.14,1.42-2.6,1.29-4.08s-0.84-2.84-1.98-3.79l-13.91-11.67L251.94,364.68z M338.99,379.69
			c2.8-3.34,7.79-3.78,11.13-0.97c3.34,2.8,3.78,7.79,0.97,11.13c-2.8,3.34-7.79,3.78-11.13,0.97S336.18,383.04,338.99,379.69z"/>
	</g>
	<g>
	</g>
	<g>
	</g>
	<g>
	</g>
	<g>
	</g>
	<g>
	</g>
	<g>
	</g>
	<g>
	</g>
	<g>
	</g>
	<g>
	</g>
	<g>
	</g>
	<g>
	</g>
	<g>
	</g>
	<g>
	</g>
	<g>
	</g>
	<g>
	</g>
</g>
</svg>
